<?xml version="1.0" standalone="no"?>
<!DOCTYPE svg PUBLIC "-//W3C//DTD SVG 20010904//EN"
 "http://www.w3.org/TR/2001/REC-SVG-20010904/DTD/svg10.dtd">
<svg version="1.0" xmlns="http://www.w3.org/2000/svg"
 width="225.000000pt" height="225.000000pt" viewBox="0 0 225.000000 225.000000"
 preserveAspectRatio="xMidYMid meet">

<g transform="translate(0.000000,225.000000) scale(0.100000,-0.100000)"
fill="#000000" stroke="none">
<path d="M993 2095 c-220 -62 -369 -269 -433 -602 -11 -57 -20 -107 -20 -110
0 -3 -27 30 -59 73 -75 100 -188 212 -200 199 -5 -6 -30 -34 -55 -64 l-45 -54
70 -75 c135 -144 225 -307 273 -493 27 -102 47 -129 98 -129 19 0 39 10 58 28
l28 28 -5 150 c-10 259 25 486 98 643 66 142 148 221 253 243 46 10 61 9 100
-6 70 -27 100 -72 104 -158 4 -62 1 -76 -28 -135 -42 -85 -155 -200 -267 -273
-96 -62 -112 -88 -89 -144 23 -54 54 -62 146 -37 163 45 267 57 365 41 178
-29 276 -129 279 -285 1 -69 1 -70 -24 -68 -174 14 -247 15 -317 4 -320 -50
-589 -195 -671 -360 -40 -82 -39 -169 3 -237 33 -53 107 -105 180 -126 56 -17
207 -14 287 6 240 57 479 221 608 418 l43 67 46 -24 c25 -13 77 -46 115 -75
38 -28 74 -49 81 -46 6 2 34 30 60 61 l49 57 -24 19 c-64 50 -151 109 -206
140 l-62 33 5 81 c3 44 0 105 -6 137 -44 209 -230 358 -467 375 l-82 6 35 45
c117 153 150 324 89 457 -70 154 -249 236 -413 190z m604 -1399 c9 -8 -60
-100 -114 -153 -214 -210 -593 -310 -679 -179 -16 25 -16 29 2 67 10 22 38 59
63 81 86 75 300 161 466 188 57 8 252 6 262 -4z"/>
</g>
</svg>
